<?xml version="1.0" encoding="UTF-8"?>
<svg width="614px" height="611px" viewBox="0 0 614 611" version="1.1" xmlns="http://www.w3.org/2000/svg" xmlns:xlink="http://www.w3.org/1999/xlink">
    <!-- Generator: Sketch 51.3 (57544) - http://www.bohemiancoding.com/sketch -->
    <title>Majestic-LOGO</title>
    <desc>Created with Sketch.</desc>
    <defs></defs>
    <g id="Page-1" stroke="none" stroke-width="1" fill="none" fill-rule="evenodd">
        <g id="Artboard-3" transform="translate(-30.000000, -32.000000)" fill="#FFEB96" fill-rule="nonzero">
            <g id="Majestic-LOGO" transform="translate(30.000000, 32.000000)">
                <g id="Group" transform="translate(307.000000, 305.500000) scale(-1, 1) rotate(-180.000000) translate(-307.000000, -305.500000) translate(0.000000, -0.000000)">
                    <path d="M400.6,476.5 C402.2,475.7 410.5,473.2 419,471 C427.5,468.7 435,466.4 435.5,465.8 C436.2,465 435.7,464.9 434,465.4 C432.6,465.8 425.2,467.2 417.5,468.6 C409.8,469.9 402.2,471.5 400.5,472 C396.4,473.4 393.7,475.6 394.5,476.9 C395.4,478.4 397.1,478.3 400.6,476.5 Z M228,476.1 C228,473.9 218.3,470.8 204.4,468.5 C196.2,467.1 189.1,466 188.6,466 C185.9,466 190.1,467.4 203.6,470.9 C211.8,473.1 219.6,475.3 221,475.9 C224.2,477.1 228,477.3 228,476.1 Z M223.1,468.5 C223.2,466.9 216,465.2 204.1,464 C198,463.4 192.3,462.7 191.5,462.4 C190.7,462 190,462.2 190,462.7 C190,463.2 195.5,464.7 202.3,466 C209,467.3 215.4,468.7 216.5,469.1 C219.1,470.2 223,469.8 223.1,468.5 Z M406.4,469.1 C406.7,468.7 409.1,468 411.7,467.6 C420,466.5 432,463.6 432,462.6 C432,462.2 431,462.1 429.8,462.4 C428.5,462.8 423.1,463.5 417.8,464.1 C406,465.4 398.8,467.1 398.2,468.8 C397.8,470.2 405.5,470.6 406.4,469.1 Z M217,463 C217,462.4 216.3,461.7 215.5,461.4 C214.7,461 214,460.2 214,459.5 C214,457.5 208.7,455.8 203.4,456.2 L198.5,456.6 L202.8,457.4 C209.5,458.7 208.7,459.9 201.4,459.3 C192.8,458.6 193.5,460.5 202.2,461.5 C205.7,461.9 209.4,462.6 210.5,463.1 C213.4,464.2 217,464.2 217,463 Z M414.7,462.5 C417.8,461.7 421.9,461 423.7,461 C425.4,461 427.2,460.5 427.6,459.8 C428.1,459 426.3,458.9 420.6,459.4 C411.8,460.2 410.9,458.8 419.2,457.4 L424.5,456.6 L418.9,456.2 C412.7,455.9 408,457.2 408,459.4 C408,460.1 407.3,461 406.5,461.4 C404.3,462.2 404.7,464 407,464 C408,464 411.5,463.3 414.7,462.5 Z M194.6,418.4 C200.4,414.8 205.5,408.4 207.1,402.7 C207.7,400.4 208.6,393.1 209,386.5 C209.4,379.8 210.5,372.8 211.3,370.8 C213.4,365.7 219.2,359.7 224,357.5 C227.7,355.8 228.6,355.8 232.8,357 C242.2,359.7 247.5,359.5 254.4,356.1 C263.7,351.5 268.1,344.2 271.6,327.4 C274,315.7 276.8,309.1 281.7,303.9 C286.3,299 292,296.5 297.6,297.2 C300.3,297.5 300.5,297.8 300.2,301.2 C299.9,304.5 300.1,305 302.6,305.6 C310.2,307.5 311.3,298 304,293.7 C300.2,291.4 290.7,291.5 285.5,293.9 C283.3,294.9 279.6,297.8 277.3,300.3 L273.1,304.9 L267.3,301.4 C255.1,294.1 241.4,290.7 223.9,290.8 C203.8,290.8 189.9,296.1 177.7,308.3 C171.5,314.4 167.4,321.1 164.7,329.2 C163.9,331.6 156.8,335 152.7,335 C150.9,335 147.1,333.9 144.3,332.5 C136.1,328.4 131,320.2 131,311.1 C131,306.8 131.4,305.8 134.1,303.6 C136.4,301.6 138.3,301 141.7,301 C145.6,301 146.1,301.2 145.5,302.8 C143,308.7 144.4,313 148.9,313 C152.7,313 154.5,310.7 154.5,305.7 C154.5,302.3 153.9,301.2 150.6,298.4 C140.9,290 126,297.3 126,310.5 C126,313.5 125.5,316.2 124.8,316.8 C124.1,317.3 120.9,318.3 117.8,319 C110.6,320.4 100,318.7 88.4,314 C84.1,312.2 77.4,309.5 73.5,308 C56.7,301.2 35.7,297.6 26.5,299.9 C14,303 6.7,314.7 11.1,324.3 C12.4,327.3 17,330 20.5,330 C29,330 33.6,319.8 26.8,316 C23.3,314.1 20.9,315.4 19.5,319.8 C18.4,323.6 16.3,324 15.4,320.5 C13.4,312.6 23.3,304 34.6,304 C43.9,304 59.8,308.2 80,316 C97.9,322.9 101.2,323.9 109.5,324.6 C114.6,325 117.7,324.8 121,323.6 C127,321.5 127.5,321.6 128.8,324.5 C130.9,329.2 138,335.7 143.3,338 C147.7,339.9 149.5,340.2 155.7,339.6 L163,339 L163,344.4 C163,355.2 168.3,364.8 176.3,368.6 C182.7,371.5 186.1,371.6 191.7,368.9 C202.2,363.8 205.1,349.3 197.1,341.6 C191.4,336.1 183,338.8 183,346.1 C183,347.7 183.9,349.9 185,351 C186.6,352.6 187.4,352.8 190,351.9 C191.9,351.2 193,350.1 193,349 C193,345.7 194.8,345.9 196,349.4 C196.9,352.1 196.8,353.6 195.4,356.9 C193.2,362.5 189.8,365 184.5,365 C178.9,365 174.3,361.8 171.1,355.5 C168.9,351.2 168.5,349.2 168.6,341.5 C168.6,333.6 169,331.7 171.7,326 C180.9,306.2 199,296 224.8,296 C242,296 261.7,301.6 268.5,308.4 L270.7,310.7 L267.9,321.6 C263.1,340.2 261.9,343.1 256.9,348.1 C251.9,353.2 247.2,354.7 240.1,353.5 C231.1,352 221.7,342.8 220.4,334.4 C219.1,325.3 227,316.1 236.3,316 C240.8,316 245,319.5 245,323.4 C245,325.5 244.4,325.9 241,326.5 C236.4,327.3 234.4,329.7 233.5,335.1 L232.9,338.5 L234.5,335 C236.7,330.3 236.9,330.2 238.9,332.9 C240.9,335.5 245,336 247.5,334 C249.6,332.3 251.2,325.7 250.4,322.3 C248.3,313.6 244,310.6 234.4,311.2 C223.7,311.9 216.6,318.4 215.4,328.7 C214.6,334.7 216.1,340.4 220,346.1 C221.6,348.5 223,350.8 223,351.2 C223,351.6 221.3,352.8 219.2,353.9 C209.8,358.7 205.2,367.6 203.9,383.4 C202.7,397.6 201.5,402.8 198,408.3 C193.3,415.7 183,419.1 176,415.5 C164.8,409.7 167.9,396 180.2,396.9 C181.2,396.9 182.4,397.9 183,399 C183.9,400.7 183.7,401.2 181.7,401.9 C177.2,403.6 177.1,409.5 181.5,410.6 C187.2,412 190.8,408.1 189.6,401.7 C188.1,393.7 181.1,389.5 173.5,392 C164.1,395.1 161.2,405.2 167.2,414.8 C172,422.5 185.1,424.3 194.6,418.4 Z M450.7,419.4 C455.5,415.8 457.3,412.4 457.8,406.1 C458.3,399.1 456.6,395.9 450.9,392.9 C446.7,390.8 443.4,390.5 439.6,392 C433,394.5 430.8,406.3 436.2,410.3 C438.7,412.2 439,412.2 441.4,410.6 C445,408.3 445,403.4 441.5,401.8 C438.6,400.5 438.4,399.7 440.6,398 C445.6,393.8 454.8,399.9 453.7,406.8 C452.3,415.3 441.4,419.8 432.7,415.4 C423.8,410.9 420.3,403.4 418.9,386 C417.5,367.2 414.9,361.7 403.8,354.2 L399.1,351 L402.5,346 C409.8,335.1 407.9,320.6 398.4,314.3 C394.2,311.6 386.7,310.1 382.4,311 C377.6,312.1 373.3,316.6 372.4,321.6 C370.9,329.8 375.7,337.2 381.3,335.1 C382.8,334.5 384,333.4 384,332.5 C384,330.6 385.4,330.6 387,332.5 C388.8,334.6 389.2,333.8 388.1,330.7 C387.4,328.8 385.9,327.8 382.8,326.9 C377.1,325.3 376.8,324.9 378.1,321.3 C379.4,317.5 383.6,315.5 389,316.3 C397.5,317.4 403.8,325.9 402.5,334.5 C401.2,343.7 390.9,352.4 380,353.7 C376.2,354.1 374.2,353.8 370.5,352 C362.9,348.3 359.9,342.3 354,319.1 C351.5,309.3 351.6,309.1 361.1,304.1 C379.1,294.4 409.7,293.2 426.3,301.6 C441.9,309.4 450.9,320.3 454,335.5 C457.2,351 449.8,365 438.2,365 C434.6,365 433.2,364.4 430.5,361.7 C426.5,357.7 425.1,352.1 427.1,348.3 C428.5,345.8 428.5,345.8 429,347.9 C429.3,349.1 430.7,350.9 432.2,351.8 C434.8,353.3 435,353.3 437.5,351 C442.3,346.5 439.3,338.6 432.7,338.6 C423.5,338.6 418.2,349.5 422.5,359.7 C424.5,364.5 426.6,366.8 431.2,369.1 C436.1,371.6 439.4,371.5 445.6,368.6 C453.9,364.7 458.5,357 459.4,345.2 L459.8,339.5 L466.4,339.8 C475.8,340.3 482.2,338 488.2,331.8 C490.8,329.1 493.3,325.8 493.6,324.4 C493.9,323.1 494.4,322 494.5,322 C494.7,322 497.7,322.7 501.1,323.6 C511.7,326.3 520.1,324.7 543,315.7 C560,309 579.1,304 587.4,304 C596.6,304 606.1,309.7 607.5,316.1 C608.4,320.1 606.3,324.5 604.3,322.9 C603.6,322.3 603,321 603,320 C603,319.1 602.1,317.5 601,316.5 C596.9,312.8 591.2,318.4 593.2,324.2 C595.1,329.6 602.1,331.7 607,328.3 C612.8,324.3 614.1,318.4 610.8,311.4 C603.6,296.1 580.7,295.2 547,309 C529.3,316.2 524.8,317.7 517.4,318.9 C509.5,320.1 502.6,319.3 498.5,316.6 C496.4,315.2 496,314.2 496,309.8 C496,300.8 490.1,295 481,295 C471.5,295 465.6,302.6 469.2,310.5 C470,312.3 471.1,313 473.1,313 C477,313 479.1,309.8 477.9,305.7 C476.6,301 476.6,301 481.4,301 C487.7,301 492,305.1 492,311.2 C492,323.5 479.4,335.9 468.3,334.7 C461.9,334 459.4,331.8 455.4,323.2 C452.5,317.2 450,313.8 444.1,308 C434.6,298.7 426.9,294.6 413.4,291.9 C404.5,290 402.3,289.9 392,290.9 C377.5,292.3 364.7,295.8 356.1,300.7 L349.4,304.6 L345.3,300.4 C339.6,294.5 334.3,292 327.4,292 C324.3,292 320.3,292.7 318.5,293.6 C312.6,296.4 311.5,303.9 316.6,306.2 C319.9,307.8 323.1,304.9 322.7,300.6 C322.5,297.8 322.8,297.5 325.5,297.2 C329.9,296.7 335.6,298.7 339.7,302.3 C344.3,306.4 348.1,314.7 351,327.5 C355,345 359.5,352.5 368.5,356.6 C374.5,359.4 382.1,359.7 388,357.4 C393.2,355.3 397.2,356.1 403.1,360.5 C410.5,365.8 413.1,372.4 413.7,386.9 C414.2,401 416.4,407.8 422.1,413.9 C427.9,420.1 433,422.1 441.2,421.8 C446.1,421.5 448.7,420.9 450.7,419.4 Z M198.9,398.4 C200.2,393.3 200.4,377.7 199.1,378.4 C198.6,378.7 198,382.7 197.8,387.2 C197.4,393.3 196.6,397 194.7,401 C193.3,404 192.4,406.9 192.7,407.4 C193.7,408.9 197.8,403 198.9,398.4 Z M429.4,404.8 C429.1,403.5 428.1,401.2 427.3,399.7 C426.5,398.1 425.4,392.7 424.9,387.7 C424.4,382.7 423.8,378.4 423.5,378.2 C423,377.6 422.7,387.7 423,394.5 C423.2,399.3 426.7,407 428.7,407 C429.7,407 429.9,406.4 429.4,404.8 Z M195,391.4 C195,388.6 195.2,384.1 195.5,381.4 L195.9,376.5 L195,380.5 C194.4,382.7 193.6,386.5 193.1,389 L192.2,393.5 L192.1,387.2 C192,379.1 190,379.9 190,388 C190,391.2 190.5,394.2 191,394.5 C191.6,394.8 192,396.3 192,397.8 C192.1,400.4 192.1,400.4 193.5,398.6 C194.4,397.4 195,394.4 195,391.4 Z M431,397.2 C431,395.7 431.4,394 431.8,393.5 C432.3,392.9 432.4,389.8 432,386.5 L431.3,380.5 L431.1,385.7 C431,391.9 429,394 429,388 C429,385.5 428.6,384.1 428,384.5 C427.1,385.1 427.6,397.5 428.7,399.3 C429.7,401 431,399.8 431,397.2 Z M215.2,396.8 C215.2,395.5 215.2,390.7 215.1,386 C214.8,376.2 216.7,369.1 220.8,364.7 C222.6,362.9 222.9,362.1 221.8,362.5 C219.8,363.3 216,368.2 214.1,372.5 C212.6,375.9 211.4,392.5 212.4,396.4 C213.2,399.6 214.9,399.8 215.2,396.8 Z M410,388.4 C410,383.2 409.5,376.9 408.9,374.5 C407.8,370.2 401.8,362 399.8,362 C399.2,362 399.9,363.2 401.4,364.7 C406.2,369.5 407.4,373.5 407.5,385.5 C407.7,398.8 407.7,399.3 409,398.5 C409.6,398.2 410,393.6 410,388.4 Z M220.6,384.5 C219.8,376.2 221.2,369.3 223.8,367.4 C224.8,366.7 225.2,365.9 224.8,365.5 C223.3,364 218.9,372 218.3,377.3 C217.6,383.8 218.7,392 220.2,392 C220.9,392 221.1,389.6 220.6,384.5 Z M403.9,388.3 C404.5,386.2 405,383.1 405,381.4 C405,376.3 401.9,368.2 399.4,366.5 L397.1,365 L399.4,368.5 C402.5,373 403.3,378.2 402,384.9 C400.8,391.5 400.8,392 402,392 C402.5,392 403.4,390.3 403.9,388.3 Z M189,385.3 C189,381.8 188.7,380.9 188,382 C186.7,384 186.7,390 188,390 C188.6,390 189,387.9 189,385.3 Z M435.2,384.9 L434.2,381.5 L434.1,386 C434,389.1 434.3,390.1 435.1,389.3 C435.8,388.6 435.8,387.2 435.2,384.9 Z M224.9,378.8 C224.8,373.1 224.5,371.3 224,373 C222.6,377.5 223,387 224.6,387 C224.8,387 225,383.3 224.9,378.8 Z M399,380.1 C399,375.7 398.4,372.2 397.4,370.4 L395.9,367.5 L396.7,371 C397.1,372.9 397.4,377.3 397.2,380.8 C397.1,384.5 397.4,387 398,387 C398.6,387 399,384.2 399,380.1 Z M229.1,377.7 C228.3,376.9 228,377.3 228,379.1 C228,382.4 229.4,383.8 229.8,381 C230,379.8 229.7,378.3 229.1,377.7 Z M393.7,373.3 C393.5,371.2 393.3,372.7 393.3,376.5 C393.3,380.4 393.5,382 393.7,380.3 C393.9,378.5 393.9,375.3 393.7,373.3 Z M428,380.1 C428,379.5 427.6,378.8 427,378.5 C426.5,378.2 426,378.6 426,379.4 C426,380.3 426.5,381 427,381 C427.6,381 428,380.6 428,380.1 Z M433.1,376.7 C432.3,375.9 432,376.2 432,377.6 C432,380.3 433.4,381.7 433.8,379.5 C434,378.6 433.7,377.3 433.1,376.7 Z M189.7,377.8 C189.4,377 189.1,377.3 189.1,378.4 C189,379.5 189.3,380.1 189.6,379.7 C189.9,379.4 190,378.5 189.7,377.8 Z M192.7,377.8 C192.4,377 192.1,377.3 192.1,378.4 C192,379.5 192.3,380.1 192.6,379.7 C192.9,379.4 193,378.5 192.7,377.8 Z M422.7,372.8 C422.4,372.1 422.2,372.6 422.2,374 C422.2,375.4 422.4,375.9 422.7,375.3 C422.9,374.6 422.9,373.4 422.7,372.8 Z M200.7,372.8 C200.4,372 200.1,372.3 200.1,373.4 C200,374.5 200.3,375.1 200.6,374.7 C200.9,374.4 201,373.5 200.7,372.8 Z M230,371.4 C230,370.6 229.6,370.2 229,370.5 C228.5,370.8 228,371.5 228,372.1 C228,372.6 228.5,373 229,373 C229.6,373 230,372.3 230,371.4 Z M227,369 C227,368.5 226.8,368 226.6,368 C226.3,368 225.8,368.5 225.5,369 C225.2,369.6 225.4,370 225.9,370 C226.5,370 227,369.6 227,369 Z M230.2,344.5 C228.5,342.6 226.8,339.5 226.4,337.5 C225,330.1 228.6,322.4 233.7,321.8 C237,321.4 237.8,319.4 235.1,318.5 C229.5,316.7 224,323.9 224,333 C224,338.8 225.3,341.6 230,345.7 C233.6,348.9 233.7,348.5 230.2,344.5 Z M398.1,337.9 C399.9,332 398.4,325.2 394.5,321.3 C391.2,318 388.7,317.3 386.2,318.9 C384.5,319.9 386.3,321.4 390.2,322.4 C396.1,323.8 398.6,336 394.3,341.9 C391.3,345.9 391.4,346.9 394.5,344 C395.9,342.7 397.5,340 398.1,337.9 Z M393.6,335.3 C394.3,330.8 392.3,325.7 389,324 C385.2,322 385,324.1 388.6,327.6 C392,330.7 392.2,331.3 391.7,335.2 C391.5,337.6 390.9,340.4 390.5,341.5 C389.8,343.4 389.9,343.4 391.3,341.4 C392.2,340.2 393.2,337.5 393.6,335.3 Z M230.7,337.5 C229.9,332.7 231.7,328.2 235.2,326 C238.4,324.1 237.4,322.2 234.1,324 C229.7,326.3 227.9,332.2 229.6,338.8 C230.6,342.3 231.3,341.4 230.7,337.5 Z M275.9,336.2 C276.4,335.3 277.5,330.3 278.4,325.2 C280.3,314.5 281.7,311.1 286.9,305.6 L290.5,301.7 L287.1,303.6 C280.9,307.1 275.8,317.5 274.1,330.4 C273.1,337.4 273.9,339.9 275.9,336.2 Z M349,335.6 C349,331.8 345.9,318.5 344,314.3 C342,309.7 336.5,303 334.8,303 C334.3,303 335.3,304.7 336.9,306.8 C341,311.9 342.8,316.5 344.6,326.7 C345.4,331.4 346.3,335.7 346.6,336.1 C347.4,337.5 349,337.1 349,335.6 Z M177.5,329.3 C181.6,321.6 183.7,319 190,313.9 C194.4,310.3 203,305.6 208,303.9 C209.8,303.2 209.4,303.2 206.5,303.6 C204.3,303.9 198.9,305.9 194.4,308 C184.9,312.6 174.9,322.3 172.9,328.9 C171.9,332.4 172.1,336 173.4,336 C173.7,336 175.5,333 177.5,329.3 Z M185.4,328.2 C190.9,319.9 196.8,314.8 208.4,308.2 C215.1,304.5 208.3,306.8 200.7,310.9 C188.7,317.2 179,327.4 179,333.4 C179,337 180.1,336.2 185.4,328.2 Z M203.5,332.5 C204.3,330.6 207.1,326.6 209.6,323.5 C214.9,317 214.9,315 209.7,320.7 C202.4,328.6 201,330.6 201,333.3 C201,336.9 201.8,336.7 203.5,332.5 Z M422,333.8 C422,330.9 412,318 409.8,318 C409.4,318 411.5,321.4 414.5,325.6 C417.5,329.8 420,333.6 420,334.1 C420,334.6 420.5,335 421,335 C421.6,335 422,334.4 422,333.8 Z M443.4,332.8 C440.6,323.5 431.5,314.8 418.6,309.1 C411.5,306 411.7,306.5 419.5,311.6 C427.5,316.7 434.2,322.9 437.2,328 C441.3,334.7 444.9,337.5 443.4,332.8 Z M450,332.4 C450,328 445.9,321.1 440.2,315.9 C434.3,310.5 422.7,304.5 416.5,303.6 C414.3,303.3 413.2,303.2 414,303.6 C427.6,308.6 439.4,318.2 445,328.8 C448.5,335.5 450,336.5 450,332.4 Z M192.7,327 C195.9,322.8 200,318.9 204.8,315.7 C212.4,310.5 213.7,308.8 207.9,311.7 C197.6,316.7 186,327.6 186,332.2 C186,335.2 187.4,334.1 192.7,327 Z M434.8,328.8 C431.6,323.2 423.7,316.3 416.5,312.9 C410.1,309.9 410,309.8 420.4,317.5 C422.7,319.2 427,323.6 430,327.2 C436,334.4 438.4,335.2 434.8,328.8 Z M196.6,330.1 C197.5,328.5 200.6,325.3 203.3,322.9 C206.1,320.5 209.8,317.2 211.4,315.7 L214.5,312.9 L211.5,314.7 C201.8,320.4 193,328.5 193,331.6 C193,333.9 194.8,333.2 196.6,330.1 Z M427,327 C425.2,324.5 418.4,319.2 412.1,315.5 C411.3,315.1 414.7,318.7 419.6,323.6 C428,332 431.8,333.7 427,327 Z M283.6,324.9 C284.9,316.9 286.3,312.8 289.2,308.7 L291.4,305.5 L289.2,307.4 C284.5,311.5 281.9,317.9 280.5,328.6 C279.7,335.1 282.4,331.8 283.6,324.9 Z M341.5,325.8 C340.7,318.5 339,314 335.4,309.2 C332,304.8 331.2,305.7 334.4,310.4 C336.7,313.8 339,321.6 339,326.1 C339,328.2 340.7,332 341.6,332 C341.9,332 341.9,329.2 341.5,325.8 Z M146.8,328 C143.4,326.2 139.5,322.1 140.4,321.3 C140.6,321.1 142.1,322.3 143.8,324 C146.4,326.6 149,327.9 149,326.6 C149,326.4 147.4,324.6 145.5,322.7 C142.4,319.6 142,318.6 142,314.1 C142,309.3 140.9,307.5 139.6,310.3 C139.3,310.9 139.2,310.3 139.5,308.8 C140.2,305.1 138.4,304.4 136.4,307.5 C134.4,310.6 135,318.5 137.6,322.6 C139.8,325.8 145.8,329.9 148.5,329.9 C149.9,329.9 149.4,329.3 146.8,328 Z M478.3,328.4 C483.4,326 487,319.8 487,313.4 C487,309.9 486.5,307.6 485.4,306.5 C483.1,304.2 482.7,305.2 484.1,309.9 C485,313 485,314.9 484.2,317.8 C482.9,321.8 477.7,328 475.5,328 C474.7,328 473.8,328.5 473.5,329 C472.6,330.5 474.5,330.2 478.3,328.4 Z M154.7,326.5 C155.5,325.6 156,324.6 155.6,324.3 C155.3,323.9 154.4,324.3 153.7,325.2 C153.1,326.1 151.8,327 151,327.3 C149.9,327.7 149.9,327.9 151.3,327.9 C152.3,328 153.8,327.3 154.7,326.5 Z M471,327 C469,325.7 467.7,325.7 468.5,327 C468.8,327.6 469.9,328 470.8,328 C472.3,328 472.3,327.8 471,327 Z M479,324 C482.6,320.1 484.2,314.1 482.4,310.9 C481.2,308.7 481.1,308.8 481,313.6 C481,316.8 480.5,319.2 479.6,319.9 C478.4,320.9 478.2,320.5 478.5,317.3 C478.6,315.2 478.6,314.5 478.3,315.7 C477.6,319.5 475.4,320.4 473.5,317.8 L471.9,315.5 L472.2,318.5 C472.4,320.8 472.1,321.5 470.8,321.4 C468.4,321.2 468.5,322.5 471.2,325 C474.1,327.7 475.7,327.5 479,324 Z M152.8,323.3 C153,322.6 152.4,322 151.5,322 C150.2,322 150,321.3 150.6,318.5 C151.3,314.6 150.4,313.8 149,317.3 L148.1,319.5 L148.1,317.3 C148,314.6 146.3,314.2 145.7,316.8 C145.4,317.8 145.2,317.4 145.1,315.8 C145,312.1 143,312.2 143,315.9 C143,321.1 151.3,327.5 152.8,323.3 Z M289.2,320.8 C289.5,318.4 290,315.7 290.4,314.8 C290.9,313.8 290.8,313 290.3,313 C289.2,313 287,319.6 287,322.9 C287,326.8 288.8,325.1 289.2,320.8 Z M334.2,316.7 C333.7,316 333,314.3 332.6,312.8 C332.3,311.2 331.5,310 330.9,310 C330.1,310 330.1,310.4 330.8,311.3 C331.3,311.9 332.4,315.4 333.2,319 C334.4,325 334.5,325.2 334.8,321.7 C335,319.6 334.7,317.3 334.2,316.7 Z M154.1,317.3 C153.3,315.8 153.1,315.8 153,317.1 C153,318.8 154,320.3 154.8,319.6 C155,319.3 154.7,318.3 154.1,317.3 Z M293.7,315.3 C293.3,313.6 293.3,313.6 292.5,315.3 C292.1,316.2 292.1,317.8 292.5,318.8 C293.3,320.4 293.3,320.4 293.7,318.8 C294,317.8 294,316.2 293.7,315.3 Z M329.7,315.3 C329.4,314.3 329.2,315.1 329.2,317 C329.2,318.9 329.4,319.7 329.7,318.8 C329.9,317.8 329.9,316.2 329.7,315.3 Z M470.3,318.3 C470,317.6 469.4,317 469,317 C468.6,317 468,317.6 467.7,318.3 C467.4,319 468,319.6 469,319.6 C470,319.6 470.6,319 470.3,318.3 Z M475.7,315.8 C475.4,315.1 475.2,315.6 475.2,317 C475.2,318.4 475.4,318.9 475.7,318.3 C475.9,317.6 475.9,316.4 475.7,315.8 Z M297,316.4 C297,315.6 296.5,315.2 296,315.5 C295.4,315.9 295.2,316.6 295.5,317.1 C296.4,318.5 297,318.2 297,316.4 Z M327.4,314 C327.8,311.5 327.7,310.9 327,312 C326.5,312.8 326,314.6 326,315.9 C326,319.1 326.6,318.3 327.4,314 Z M106.5,312.3 C101.7,311.2 93.2,307.6 80,301.1 C65.1,293.7 59.7,291.9 57.7,293.9 C56.3,295.3 57.5,296.2 64,298.7 C66.5,299.6 73.8,302.5 80.3,305.2 C93.5,310.6 101,312.9 105.5,312.8 C107.5,312.8 107.8,312.6 106.5,312.3 Z M531,309.6 C539.5,306.5 559.5,298.3 563.5,296.2 C566.2,294.8 566.3,294.6 564.5,294 C561.1,292.8 554.9,294.9 539.6,302.6 C531.4,306.6 524,310 523,310 C522.1,310 521,310.4 520.5,310.9 C519.9,311.4 518.6,312 517.5,312.3 C516.4,312.6 517.5,312.6 519.9,312.4 C522.3,312.2 527.3,310.9 531,309.6 Z M108,309.1 C103,307.5 95.3,303 86.5,296.5 C77.2,289.6 73.5,287.6 71.9,288.6 C70.4,289.5 71.8,290.9 79.4,295.7 C95.1,305.8 103.6,310 108.5,309.9 C110.1,309.8 110,309.7 108,309.1 Z M516.3,309.3 C515.6,309.1 514.4,309.1 513.8,309.3 C513.1,309.6 513.6,309.8 515,309.8 C516.4,309.8 516.9,309.6 516.3,309.3 Z M523.9,307.1 C529.8,304.5 549.8,291.7 550.4,290.3 C551.5,287.7 546.4,289.2 541,293 C530,300.9 520.6,307 519.3,307 C518.6,307 518,307.5 518,308 C518,309.4 519.2,309.3 523.9,307.1 Z M173.6,303.7 C188.1,293.4 191.1,291.7 199,289.3 C206.7,286.9 209,286.6 222.5,286.6 C235.6,286.7 238.7,287 247,289.3 C261.4,293.3 262,293.3 255.4,290.1 C237.8,281.4 209.2,279 191.5,284.7 C180.4,288.2 170.6,294.9 167.4,301.2 C164.8,306.3 168.1,307.6 173.6,303.7 Z M455.5,305 C456.5,303.4 453.4,298.6 448.5,294.1 C438.1,284.5 418.9,279.7 399.3,281.9 C387.4,283.3 376.2,286 367.3,289.8 C359.5,293.1 359,294.6 366.6,292 C379.5,287.5 385.2,286.6 399.5,286.6 C420.1,286.5 427.5,288.8 444.8,300.4 C453.4,306.2 454.5,306.7 455.5,305 Z M106.5,303.8 C105.4,303.2 100.4,299.4 95.4,295.3 C90.4,291.3 85.5,288 84.6,288 C83.7,288 83.2,288.5 83.5,289 C84.5,290.5 99,301.2 103,303.2 C106.7,305.1 109.8,305.7 106.5,303.8 Z M521,302.4 C527.1,298.9 539,290 539,288.9 C539,286.9 535.9,288.2 531,292.3 C521.3,300.2 517.5,303.1 515.5,304 C514.2,304.6 514,304.9 515,304.9 C515.8,305 518.5,303.8 521,302.4 Z M104,294.9 C95.3,286.8 93,285.3 93,287.4 C93,288.7 109.4,302 110.9,302 C111.2,301.9 108.1,298.8 104,294.9 Z M522.3,294.3 C528.5,289.3 530.4,287 528.1,287 C527.6,287 523.9,290.2 519.8,294.1 C511.5,302.1 512.3,302.1 522.3,294.3 Z M522.5,285.1 C521.7,284.4 514.5,292.3 512.9,295.5 C512.3,296.6 514.4,294.9 517.5,291.6 C520.6,288.4 522.8,285.5 522.5,285.1 Z M108.1,293.3 C104.2,287.8 100.1,283.5 100,284.8 C100,286.3 108,295.9 109.3,296 C109.8,296 109.2,294.8 108.1,293.3 Z M513.5,290 C516.2,285.7 516.4,285 515.2,285 C514.7,285 513.5,286.7 512.5,288.8 C509.7,294.1 509.8,294 510.4,294 C510.7,294 512.1,292.2 513.5,290 Z M110.8,290.3 C110.1,288.7 109,286.6 108.3,285.5 C106.1,282.2 106.8,286.1 109,289.8 C111.4,293.7 112.4,294 110.8,290.3 Z M510.8,285.5 C510.8,283.9 510.6,284 510,286 C508.9,289.4 508.9,292 510,289.5 C510.5,288.4 510.8,286.6 510.8,285.5 Z M261,287.9 C254.6,282.5 240,277 232.2,277 C226,277 227.2,279.3 234.1,280.3 C241.4,281.4 251.5,284.5 257,287.4 C262.6,290.4 264.3,290.6 261,287.9 Z M364.7,287.6 C370.9,284.5 381.1,281.3 387.5,280.5 C397.7,279.2 396.8,276.2 386.5,277.3 C381,277.9 366.2,284.1 361.3,287.9 C357.9,290.6 358.8,290.5 364.7,287.6 Z M112.1,284.7 C111.3,283.9 111,284 111,285.1 C111,287.1 112.3,288.5 112.8,287 C113.1,286.3 112.7,285.3 112.1,284.7 Z M264.5,286 C261.3,282.5 252.2,276.8 251,277.5 C250.2,278 251.7,279.3 254.8,281 C257.6,282.5 261.1,284.7 262.6,285.9 C265.9,288.5 266.9,288.6 264.5,286 Z M371.9,278.4 C372.1,278.2 371.4,278 370.3,278 C368.3,278 358,284.8 358,286.2 C358,286.7 370.3,279.8 371.9,278.4 Z M265.2,280.9 C263.4,279.3 261.4,278 260.7,278 C260.1,278 261.3,279.6 263.5,281.4 C268.3,285.5 269.9,285.1 265.2,280.9 Z M361,279.5 C363.6,276.4 360.3,278.1 356.9,281.7 L353.5,285.3 L356.6,283.2 C358.3,282 360.3,280.4 361,279.5 Z M270,279.6 L267.9,277.5 L269.7,280.7 C270.7,282.5 271.7,283.5 271.9,282.9 C272.1,282.3 271.3,280.8 270,279.6 Z M353,280.5 L355.5,277.5 L352.8,279.9 C351.2,281.3 350,282.8 350,283.3 C350,283.9 350.1,284.1 350.3,283.9 C350.4,283.7 351.6,282.2 353,280.5 Z M350.4,278.4 C350.7,277.6 350.6,277.2 350,277.5 C349.4,277.8 349,278.5 349,279.1 C349,280.5 349.7,280.2 350.4,278.4 Z M506,270 C572.8,268.7 600.2,267.8 599.4,267.1 C597.9,265.6 492.7,264 354,263.4 C230.6,262.9 184.4,263.1 112,264.4 C62.8,265.4 22.4,266.3 22.1,266.6 C21.9,266.8 21.9,267.3 22.3,267.6 C23.5,268.8 140.7,270.7 222.4,270.9 C268,271 305.5,271.1 305.6,271.3 C306.2,271.9 459.7,270.9 506,270 Z M37.6,214.2 C29.3,230.9 22,244.6 21.3,244.8 C20.7,245 19.9,243.8 19.6,242.3 C18.4,236.2 16.9,226.6 14,207 C7.7,164.2 7.3,163 2.5,163 C1.1,163 0,162.6 0,162.1 C0,161.6 5.6,161.2 12.5,161.1 C19.8,161.1 25,161.5 25,162 C25,162.6 23.9,163 22.5,163 C18.5,163 15.9,166.3 16.5,170.8 C16.8,172.8 17.7,179.9 18.5,186.5 C19.4,193.1 20.5,201.5 21,205.2 C21.6,208.9 22,212.1 22,212.4 C22,215.5 25.7,209.1 36.4,187.5 C44.6,171.1 49.6,162 50.5,162 C51.5,162 56.6,171.4 65.1,188.8 C80,219.1 78.9,218.4 81.5,199.3 C82.4,192.8 83.6,183.9 84.2,179.5 C84.8,175.1 85.3,169.4 85.3,166.8 L85.4,162.2 L89.4,161.7 C96.7,160.9 138,161.1 138,162 C138,162.5 136.8,163 135.3,163.2 C131.1,163.7 131.2,167.9 135.6,179.4 L139.3,189 L152.4,189 L165.5,189 L170.2,177.3 C173.4,169 174.5,165 173.9,163.9 C173.3,162.7 173.5,162 174.6,161.6 C177.3,160.6 200,160.9 200,162 C200,162.6 199.1,163 198,163 C196.8,163 194.5,163.7 192.8,164.6 C189,166.6 186.1,172.7 170.5,211.5 C158.9,240.2 156.8,245 155.1,245 C154.1,245 153.1,242.9 138.5,206.5 C132.1,190.6 125.5,174.7 123.9,171.4 C120.4,164 117.8,162.6 108.9,163.2 C99.5,163.9 99.9,163.1 95.5,191.5 C94.7,196.5 92.9,208.8 91.5,219 C88.2,241.8 87.7,244.3 86.3,244.7 C85.3,245.1 75.2,225.3 59.2,191.7 C56.1,185.2 54.3,182.3 53.6,183 C53.1,183.5 45.8,197.6 37.6,214.2 Z M150.9,219.4 C151.5,220.8 152.3,222 152.7,222 C153.8,222 163.1,195.9 162.4,194.8 C161.7,193.7 143.3,193.7 142.6,194.9 C142.1,195.6 143.9,201 150.9,219.4 Z M375.9,243.9 L379,242.8 L379,234.9 C379,227 377.7,224.4 376.4,229.8 C374.7,236.5 369.5,240 361.3,240 C354.9,240 350.4,237.2 349.1,232.6 C347.1,225.2 349.8,221.4 366.3,208.3 C373.3,202.7 378,196.7 380,190.6 C381.6,185.6 380.9,177.3 378.3,172.4 C375.8,167.6 369.3,162.4 363.7,160.9 C358.5,159.5 342.5,160.2 338.8,162 C336.1,163.3 336,163.5 336,171.9 C336,176.6 336.4,181.1 336.9,181.9 C337.8,183.4 338,182.9 339.5,176.6 C341.1,169.3 347.1,165 355.5,165 C361.2,165 365.5,167.2 368,171.3 C372.3,178.2 369.8,185.5 360.7,193.3 C342.8,208.7 339.4,213 338.3,221.9 C337.2,231 341.7,238.5 350.5,242.6 C354.5,244.5 357.2,245 364.1,245 C368.8,245 374.1,244.5 375.9,243.9 Z M432,243.3 C447.7,243 461.8,243.2 464.8,243.8 L470,244.7 L470,236.2 C470,231 469.6,228 469.1,228.6 C468.6,229.1 468,230.4 467.8,231.4 C467.7,232.4 466.3,234.2 464.8,235.3 C462.6,236.9 460.5,237.3 451.8,237.4 L441.5,237.5 L441.5,201.7 C441.5,167.4 441.6,165.8 443.4,164.4 C444.5,163.6 446.9,163 448.7,163 C450.5,163 452,162.6 452,162 C452,161.4 445.8,161 435.5,161 C425.2,161 419,161.4 419,162 C419,162.6 420.1,163 421.4,163 C426.8,163 427,164.3 427,202.9 L427,238.3 L415.3,237.6 L403.5,237 L400.3,233.3 L397,229.7 L397,232.9 C397,234.7 397.5,238.2 398.1,240.6 C399.2,244.9 399.5,245.1 401.9,244.5 C403.3,244.1 416.9,243.6 432,243.3 Z M604.9,243.8 C608.5,243.2 612,242.2 612.5,241.5 C613.7,240.1 613.2,222 612,222 C611.5,222 610.8,223.5 610.5,225.3 C609.3,230.8 606.7,234.1 601.5,236.8 C596.9,239.3 595.6,239.5 584.5,239.5 C571.1,239.5 568.8,238.8 562.4,232.4 C555.9,225.8 554.5,221.4 554.5,206 C554.5,193.1 554.6,192.2 557.4,186.6 C561,179.3 567,173.1 574.2,169.3 C579,166.7 580.4,166.5 590,166.5 C602.9,166.5 606.1,168 610.2,175.8 C611.7,178.7 613.1,180.6 613.4,180.1 C613.9,179.3 612.5,168.4 611.4,164.9 C611.2,164 609.7,162.7 608.2,162 C604.4,160.2 583.7,159.5 575.5,160.9 C555.6,164.4 541.4,177.9 538.9,195.8 C535.4,220.1 548.7,239.3 572.5,244.3 C576.8,245.3 598.6,244.9 604.9,243.8 Z M239.6,242.7 C240,242.3 239.2,242 237.7,242 C232,242 232,242 232,204.8 C232,161.1 231.2,156.4 222.6,146.4 C218.5,141.6 209.7,135.5 205.4,134.4 C202.8,133.7 203.1,134.2 208.2,138.9 C213.1,143.4 214.3,145.2 216,150.7 C217.9,156.8 218,159.9 218,198 L218,238.9 L215.8,240.4 C214.6,241.3 212.3,242 210.7,242 C209.2,242 208.1,242.4 208.4,242.9 C209.1,243.9 238.5,243.8 239.6,242.7 Z M310,238.5 C310,235.8 309.7,232.4 309.3,231 C308.7,228.7 308.6,228.7 307.5,232 C306,236.6 303.3,237.7 292.5,238.2 L283.5,238.5 L283.2,223.3 L282.9,208 L293.9,208 C300.1,208 305.1,208.4 305.5,209 C307.8,212.7 308.8,205.3 307.1,196.5 L306.4,192.5 L305.7,196.2 C304.7,201.2 302.5,202.2 292.1,202.4 L283.5,202.5 L283.2,186.8 C282.9,167 282.9,167 295.5,167 C300.1,167 305,167.5 306.3,168.1 C308.8,169.2 311,172.8 311,175.5 C311,176.3 311.5,177 312.1,177 C313.5,177 312.3,164.1 310.7,162.2 C309.9,161.2 304.2,161 285.3,161.2 C272,161.3 261,161.7 261,162 C261,162.3 262.4,163 264.2,163.5 C266.4,164.2 267.7,165.3 268.1,167 C268.5,168.4 268.8,184.9 268.9,203.8 C269,236.7 268.9,238.1 267,240 C265.9,241.1 263.7,242 261.9,242 C260.3,242 259.1,242.3 259.3,242.8 C259.6,243.2 271.1,243.5 284.9,243.5 L310,243.5 L310,238.5 Z M518,242.8 C518,242.3 516.9,242 515.6,242 C510,242 510,242 510,202.9 C510,168.3 510.1,166.9 512,165 C513.2,163.8 515.3,163 517.5,163 C519.4,163 521,162.6 521,162 C521,161.4 514.8,161 504.5,161 C494.2,161 488,161.4 488,162 C488,162.6 489.1,163 490.4,163 C495.8,163 496,164.3 496,202.9 C496,234.5 495.8,238.5 494.3,240.2 C493.4,241.2 491.6,242 490.3,242 C489.1,242 488,242.4 488,242.8 C488,243.3 494.8,243.6 503,243.6 C511.3,243.6 518,243.2 518,242.8 Z M238.2,122.3 C241.9,120.5 244.2,116.8 244.7,111.7 C245.6,104.3 241,98.1 233.3,96.1 C221.7,93 211.3,103.3 214.9,114.3 C217.8,123.1 229.1,127 238.2,122.3 Z M387.8,123.4 C389,123.1 389.6,119 388.3,119 C388,119 386.8,119.7 385.8,120.6 C384.8,121.6 381.9,122.5 379.3,122.7 C373.5,123.3 369.6,120.8 368.1,115.6 C367.2,112 367.9,105.8 369.8,102.4 C371.3,99.5 377.3,96.8 381.3,97.2 L384.5,97.5 L384.6,103.5 C384.7,109.1 384.9,109.5 387.1,109.5 C389.3,109.5 389.5,109 389.8,103.9 C390.2,96.7 389,95.7 380.1,95.7 C368.9,95.7 362.6,100.8 362.6,109.9 C362.6,117.5 367,122.5 374.8,124 C378.2,124.7 384.7,124.4 387.8,123.4 Z M185.2,112.6 C184.8,99.2 185.5,97 190.3,97 C192.1,97 194.1,97.5 194.8,98.2 C195.7,99.1 196,99 196,97.8 C196,95.6 194.5,95.3 187,95.8 L180.5,96.2 L180.5,110.1 L180.5,124 L183,124 L185.5,124 L185.2,112.6 Z M272.5,112.4 C272.5,101.4 272.6,100.7 274.9,98.9 C278.1,96.3 281.6,96.5 284.6,99.5 C287,101.9 287.1,102.4 286.8,113 C286.5,123.4 286.6,124 288.5,124 C290.4,124 290.5,123.4 290.2,115.3 C289.9,103.5 289.3,100.6 287.1,98.6 C284.2,96 279.1,94.9 274.9,96 C269.2,97.6 267.8,100.6 267.1,113.2 L266.5,124 L269.5,124 L272.5,124 L272.5,112.4 Z M337.3,104.6 C338.4,105.7 338.1,118.5 337,121.4 C336.2,123.7 336.3,124 338.3,124 C340.5,124 340.5,123.9 340.2,111.3 C340,104.2 339.7,97.9 339.4,97.1 C339.1,96.1 335.8,98.7 329.2,105.3 C323.8,110.6 319.1,115 318.7,115 C317.5,115 317.9,98.5 319.2,97.2 C320.1,96.3 319.7,96 317.2,96 C315.2,96 314.2,96.4 314.5,97.3 C314.9,98.8 315.9,113.8 316,120 L316,124.5 L326.3,114.2 C332,108.6 336.9,104.2 337.3,104.6 Z M429,122.5 C429,121.4 428.5,121.3 426.6,122 C421.7,123.8 420.5,122.8 420.5,116.9 L420.5,111.5 L424.3,111.6 C426.6,111.7 428,111.3 428,110.5 C428,109.7 426.6,109.3 424.3,109.4 L420.5,109.5 L420.2,103.8 C419.9,98.4 420,98 422.5,97.4 C423.9,97.1 426.1,97.1 427.5,97.4 C428.9,97.8 430,97.6 430,97.1 C430,95.9 427.6,95.1 425.4,95.5 C424.3,95.7 421.5,95.9 419,95.9 L414.5,96 L414.5,110 L414.5,124 L421.8,124 C427.5,124 429,123.7 429,122.5 Z M24,114.8 C28,110.5 25.4,105 19.3,105 C16.7,105 16,105.4 16,106.9 C16,108 16.9,109.2 18,109.5 C20.8,110.4 20.6,113.2 17.8,112.8 C14.7,112.4 12.6,107.8 13.5,103.3 C15.1,94.7 25.9,88 38,88 C48.8,88 67.2,94.3 78.2,101.7 C91,110.5 101.3,113.9 108.6,111.8 C117.8,109.4 121.7,100.1 116.9,92.4 C114.8,88.9 112.4,88.2 108.9,90 C104.9,92.2 107.5,96.3 113.5,97.2 C116.4,97.7 115.6,101.9 111.9,105.3 C107.4,109.4 100.4,109.1 91.2,104.4 C83.1,100.2 81,97.1 81,89.6 C81,86 81.6,84.4 83.5,82.5 C86.1,79.8 90.7,79.2 94.1,81 C96.3,82.2 96.6,84.8 94.6,85.6 C90.9,87 92.3,93 96.3,93 C99.7,93 101,91.1 101,86.2 C101,82.7 100.4,81.3 98.1,78.9 C95.6,76.4 94.4,76 90,76 C80.9,76 76.8,80.3 76.4,90 C76.3,92.5 76.1,94.6 76.1,94.8 C76,94.9 73.8,93.9 71.1,92.5 C63.3,88.6 52.2,85.2 43.4,84.1 C28.8,82.3 17.9,86.3 11.9,95.7 C7.4,102.9 8.1,112.5 13.4,116.2 C15.8,117.8 21.9,117 24,114.8 Z M610.5,114.4 C614,110.7 614.2,103.2 611,97 C604.2,83.9 586.8,79.9 566.3,86.8 C561.2,88.5 554.8,91.1 552,92.5 C549.3,93.9 546.8,95 546.5,95 C546.2,95 546,93 546,90.5 C546,81.1 541.5,76 533,76 C525.3,76 521,80.1 521,87.3 C521,91.1 522.5,93 525.5,93 C530,93 531.5,88.2 527.8,85.6 C525.7,84.1 525.7,84 527.5,82 C530.9,78.2 539,80.1 541.1,85.1 C542.4,88.3 541.9,93.5 539.8,97.6 C539.1,99.1 535.6,102 532.1,104.1 C526.6,107.4 524.8,108 519.8,108 C514.9,108 513.6,107.6 511,105.3 C507,101.6 506.5,97.6 510,97.2 C512.9,96.8 516,94.3 516,92.4 C516,90.7 512.8,89 509.6,89 C507.9,89 506.5,90 505.1,92.4 C502.4,96.7 502.4,101.3 505.1,105.7 C511.1,115.4 524.7,114.6 541.2,103.6 C554.4,94.9 573.5,88 584.5,88 C596.7,88 607.9,94.8 609.4,103.3 C610.3,108.4 608.4,112.4 604.7,112.8 C601.3,113.2 601.2,111.7 604.7,109.2 C608,106.8 607,105 602.5,105 C597.3,105 595.3,110.1 598.6,114.8 C600.9,118.1 607.3,117.9 610.5,114.4 Z M474.5,79.2 L492.5,78.5 L475.5,77.5 C452.2,76.1 134.4,76.3 131.1,77.7 C128,78.9 144.4,79.6 185,79.9 C200.7,80.1 213.7,80.4 214,80.7 C214.7,81.4 451.1,80 474.5,79.2 Z M125.3,78.3 C124.6,78.1 123.4,78.1 122.8,78.3 C122.1,78.6 122.6,78.8 124,78.8 C125.4,78.8 125.9,78.6 125.3,78.3 Z M259,71.4 C263.9,69.7 272.4,65.1 271.7,64.4 C271.5,64.2 268.7,65.1 265.6,66.6 C262.4,68 256.7,69.7 252.9,70.3 C248,71 246,71.8 246,72.8 C246,74.5 251.5,73.9 259,71.4 Z M375.9,73.1 C377.7,71.9 376.4,71.3 370.5,70.5 C367.8,70.1 362.8,68.7 359.5,67.5 C356.2,66.3 352.6,65 351.5,64.5 C350.4,64.1 351.5,65.1 354,66.7 C359.9,70.5 366.8,73 373.5,73.8 C374.1,73.9 375.1,73.6 375.9,73.1 Z M267.6,71.7 C270.4,70.1 275,66.3 275,65.7 C275,64.9 264.1,71.4 264,72.3 C264,73.3 265.2,73.1 267.6,71.7 Z M280.5,71.8 C281,72.2 281,72 280.6,71.3 C279.8,69.9 277,70.7 277,72.2 C277,72.9 277.5,72.8 278.3,72.1 C279.1,71.5 280.1,71.4 280.5,71.8 Z M351,72.2 C351,71.7 349.5,70.3 347.8,69 L344.5,66.7 L347.4,69.8 C350.5,73.2 351,73.5 351,72.2 Z M358,72.3 C358,71.8 356.1,70.4 353.9,69.2 C349.2,66.5 349.6,68.2 354.4,71.1 C357.9,73.2 358,73.3 358,72.3 Z M274,71 C274.8,70.5 275.1,70 274.5,70 C274,70 272.8,70.5 272,71 C271.2,71.5 271,72 271.5,72 C272.1,72 273.2,71.5 274,71 Z M285.7,68.8 C285.4,68 285.1,68.3 285.1,69.4 C285,70.5 285.3,71.1 285.6,70.7 C285.9,70.4 286,69.5 285.7,68.8 Z M252.2,68.1 C260.9,66 268.6,63.2 267.7,62.4 C267.4,62.1 264.6,62.7 261.4,63.7 C256.8,65.1 252.3,65.5 241,65.5 C223.6,65.4 219.3,64.1 206.9,55.5 C198.6,49.6 196,49.2 197.9,54.1 C200,59.6 209.8,65.8 220.6,68.4 C229.2,70.5 242.5,70.3 252.2,68.1 Z M402.3,68.4 C405.6,67.6 410.4,65.8 413,64.5 C420.2,60.8 428.1,51 423.8,51 C423.2,51 419.2,53.2 415.1,55.9 C402,64.5 398.8,65.4 381.5,65.4 C368.4,65.5 365.6,65.2 359.2,63.1 C355.2,61.9 351.7,61 351.5,61.2 C350.7,61.9 364.5,66.8 371.5,68.3 C380.9,70.3 394.7,70.4 402.3,68.4 Z M148.1,64.8 C151.9,60.3 152.2,58.5 148.6,61.9 C145.3,65.1 144.2,67 145.6,67 C145.9,67 147,66 148.1,64.8 Z M151.7,64.8 C151.4,64 151.1,64.3 151.1,65.4 C151,66.5 151.3,67.1 151.6,66.7 C151.9,66.4 152,65.5 151.7,64.8 Z M154.7,64.8 C154.4,64 154.1,64.3 154.1,65.4 C154,66.5 154.3,67.1 154.6,66.7 C154.9,66.4 155,65.5 154.7,64.8 Z M470.8,63.8 C470.2,62 469.5,61.1 469.3,61.7 C468.9,62.8 470.6,67 471.5,67 C471.7,67 471.4,65.5 470.8,63.8 Z M475.5,63.6 C474.1,61.7 472.2,59.9 471.4,59.6 C470.6,59.3 471.4,60.8 473.1,63 C477,67.9 479.2,68.4 475.5,63.6 Z M146.5,60.4 C149.8,57.4 151.8,55.2 151,55.6 C148.2,57.1 140.5,63.2 139.7,64.6 C138.1,67.4 140.6,65.8 146.5,60.4 Z M483,65 C483,64 472,55 470.8,55 C470.4,55 472.7,57.5 476,60.5 C482.2,66.2 483,66.7 483,65 Z M133.5,58.5 C137.4,55.7 142.1,52.5 144,51.4 C145.9,50.4 147.7,49.4 147.9,49.3 C148.1,49.1 148.1,48.7 147.8,48.4 C146.4,47 121.5,62.3 122.5,64 C123.4,65.4 125.8,64.2 133.5,58.5 Z M140.2,59.7 C143.7,56.7 147.4,53.8 148.5,53.2 C149.6,52.6 150,52 149.3,52 C147.6,52 132.8,62.2 132.2,63.8 C131.4,66.2 134,64.9 140.2,59.7 Z M488.5,62 C486.3,59.5 475.2,52 473.8,52 C472.9,52 482.3,60.1 486.9,63.3 C490,65.4 490.9,64.6 488.5,62 Z M500,63.3 C500,61.5 478.7,48.9 476,49.1 C475,49.1 475.2,49.4 476.5,49.9 C477.6,50.4 482.5,53.7 487.5,57.4 C495.5,63.3 500,65.4 500,63.3 Z M261.4,60.5 C267.7,58.8 273.7,56.3 278.2,53.4 C280.9,51.6 280.9,51.6 285.3,55.7 C292.3,62.2 300.4,63.6 306.6,59.5 C309.4,57.7 309.9,53 307.4,50.9 C305.1,49 302.5,51 302.5,54.6 C302.5,58.4 299.7,58.8 293.6,56.2 C287.8,53.6 283.7,47.8 281.5,39.3 C278.3,26.4 275.9,19.8 273.3,16.3 C265,5.5 247.6,6.9 239.4,19.1 C232.6,29.3 234.7,40.2 244.3,44.9 C250.6,48 256,47.7 259.9,44.1 C262.6,41.6 263,40.5 263,36.1 C263,28.6 258,24.3 254.8,28.9 C253,31.5 251.3,30.3 250.7,26 C250.3,22.5 250.3,22.6 250.2,26.6 C250,31.2 251.7,33.4 256.3,34.5 C261.1,35.7 259.1,41.5 253.5,42.6 C248.8,43.4 242.5,39.4 240.3,34.2 C236.3,24.5 248,12 259.8,13.3 C268.4,14.2 272.1,19.4 276.5,36.3 C277.9,41.6 279,46.5 279,47 C279,49 269.8,53.8 261.7,56.1 C251,59 235.1,59.3 227,56.6 C216.1,53 206.6,45.6 202.9,37.9 C202,36 200.7,33.3 200,31.8 C197.9,27.4 198.3,17 200.8,11.9 C204.2,4.8 211.1,2 216.5,5.6 C219.3,7.4 221.4,13 220.5,16.1 L219.8,18.2 L217.9,16.1 C215.5,13.6 213.7,13.4 211.6,15.6 C206.6,20.5 214.5,28.1 220,23.7 C225,19.8 226.3,13.5 223.4,7.4 C221,2.4 217.1,-2.27373675e-13 211.3,-2.27373675e-13 C202.1,-2.27373675e-13 195.9,6.7 194.5,18.3 L193.8,24 L187.1,24 C178.7,24 173.7,26.7 169.5,33.2 C167.1,37 166.1,37.8 164.5,37.4 C163.4,37 159.1,36.5 155,36.3 C147.6,35.8 146.9,36 131,42 C114,48.4 100.5,52 93.5,52 C85.4,52 78,46.6 78,40.8 C78,36.9 79.9,36.3 81.1,39.9 C82,42.4 82.8,43 85.1,43 C89.9,43 91.5,38 88,34.2 C84.9,30.9 78.8,31.2 76.1,34.6 C73.3,38.2 73.3,44.4 76.3,48.7 C83.4,59.1 100.3,58.4 130.2,46.4 C145.3,40.3 154.6,38.7 161.3,40.9 C164.6,42 165,42.5 165.1,45.8 C165.3,51.8 166.4,54.3 169.9,56.7 C175,60.1 181.3,59.9 185.1,56.1 C186.7,54.5 188,52.2 188,51 C188,48 186.2,45 184.5,45 C183.6,45 183.1,44.2 183.3,43 C183.7,40.4 185,39.2 185,41.4 C185,43.9 187.4,42.8 187.8,40.2 C188,38.9 188.6,38.2 189.2,38.6 C190,39.1 190.1,38.7 189.7,37.6 C189.3,36.6 189,35.4 189,34.8 C189,34.3 188.4,34 187.8,34.3 C187.1,34.5 185.7,34.1 184.8,33.2 C183.3,32 182.6,31.9 180,33 C174.3,35.4 170.4,44.1 172.9,48.9 C174.4,51.5 176.4,51.7 175.7,49.1 C175.4,47.9 175.7,47.3 176.4,47.6 C177,47.8 178.1,46.6 178.9,44.9 C179.8,42.8 180.5,42.2 181,43 C181.4,43.7 181.2,45.4 180.5,46.7 C179.6,48.5 179.4,50 180.1,51.7 C180.8,53.5 180.6,54.2 179.5,54.6 C177.3,55.5 173.2,54.2 171,52 C164.5,45.5 175.2,28 185.6,28 C192.2,28 194.4,29.6 197.4,36.6 C202.7,48.8 214.9,58.3 229.4,61.6 C236.9,63.3 253,62.8 261.4,60.5 Z M390.9,62 C405.6,59.6 418.4,50.3 424.5,37.5 C428.2,29.8 430.5,28 436.6,28 C438.5,28 441.4,28.7 442.9,29.5 C448.5,32.3 454,41.1 454,46.9 C454,50.6 450,54.1 445.8,54.3 C442.8,54.5 442.5,54.3 442.8,52 C443.3,47.6 442.2,45 439.7,45 C436.5,45 435,46.8 435,50.6 C435,55.5 438.9,59 444.4,59 C446.9,59 450,58.5 451.4,57.9 C454.5,56.5 457,51.4 457,46.6 C457,42.3 458.9,41.1 466.5,40.3 C473.2,39.6 479.8,41.2 493,46.7 C520.1,58.2 539,58.9 546.2,48.7 C551.2,41.7 547.7,32 540.3,32 C536.4,32 533,34.9 533,38.3 C533,43.7 539.4,45 541.3,40 C542.7,36.4 544.4,36.6 544.8,40.4 C545.6,47.3 536.9,52.7 526.2,51.7 C518.4,50.9 503.3,46.9 495.7,43.6 C480.3,36.7 466.6,34.3 459.3,37.1 C457,38 456.3,37.9 455.5,36.4 C450.6,27.9 443.5,23.8 434.7,24.1 L428.5,24.4 L427.9,18.9 C426.4,6.5 420.6,-1.13686838e-13 410.7,-1.13686838e-13 C403.1,-1.13686838e-13 398,5.8 398,14.5 C398,18.3 398.5,19.7 400.9,22.1 C404.7,25.8 409.3,26 411.5,22.6 C415.1,17.2 408.9,10.8 405.1,15.9 C402,20 400.7,14.4 403.5,9 C405.3,5.6 407.8,4 411.5,4 C420.3,4 426.1,15.5 423.5,27.9 C420.7,41.6 411.2,51.1 395,56.6 C387.7,59 372.1,59.1 362.4,56.6 C354.7,54.7 345.3,49.8 344.3,47.3 C343.6,45.5 346.4,32.9 349.2,25.5 C354.3,12.2 365.7,9.2 377.2,18.2 C379.7,20.1 381.4,22.6 382.5,25.9 C383.9,30.2 383.9,31 382.5,34.3 C378.7,43.5 366.5,45.7 363.7,37.8 C363.2,36.5 364.1,35.6 367.4,34.1 C370.9,32.6 371.9,31.5 372.5,29 C372.9,27.3 372.9,25.6 372.6,25.3 C372.3,24.9 372,25.6 372,26.7 C372,30 369.7,31.3 367.7,29 C365.4,26.3 363.5,26.5 361,29.8 C357.8,33.8 358.7,40.4 362.9,44.2 C372.2,52.5 388.2,42 386.5,28.6 C385,16.8 376.1,9 364.1,9 C358.9,9 357.6,9.4 353.8,12.3 C348.2,16.6 345.8,21.2 342.5,34 C339.2,47.1 336,52.7 330,55.8 C323.7,59 320.6,58.5 320,54 C319.1,48.1 313,49.1 313,55.1 C313,57.3 313.8,58.5 316.3,60 C322.4,63.8 330.7,62 338,55.4 L341.9,51.8 L344.7,53.7 C355.1,60.8 375.5,64.4 390.9,62 Z M131,53.5 C138.4,50 145.4,46.9 146.5,46.6 C147.6,46.3 146.6,46.2 144.3,46.4 C140.7,46.7 128,51.4 114.2,57.6 C110.4,59.2 110.9,61.5 114.9,60.5 C116.3,60.2 123.6,57 131,53.5 Z M511,59.1 C511,58.6 510.2,58 509.3,57.7 C508.3,57.4 501.9,54.9 495.1,52.1 C488.4,49.3 480.9,46.8 478.6,46.5 C474.8,46 474.7,46.1 477.6,47 C479.3,47.5 486.1,50.7 492.6,54 C503.5,59.5 511,61.6 511,59.1 Z M224.6,50 C214.3,44.6 210.9,41.2 204.7,29.9 C202.3,25.5 200.3,27.3 201.9,32.3 C203.7,37.7 212.3,45.7 220.4,49.6 C229.1,53.8 232.6,54.1 224.6,50 Z M289.5,48.1 C287.8,45.5 286.4,41.5 285.6,36.3 C284.3,28 283.4,25.6 282,26.5 C280.9,27.2 283.5,40.1 285.6,44.2 C287.1,47.2 290.8,52 291.7,52 C291.9,52 290.9,50.2 289.5,48.1 Z M336,46 C338.1,41.9 341,31.4 341,27.9 C341,23.1 338.5,28 337.3,35.2 C336.7,39.1 335,44.5 333.5,47.3 C331.9,50.5 331.5,51.8 332.5,51 C333.4,50.2 335,48 336,46 Z M405,48.5 C412.6,44.6 420.9,34.7 421,29.3 C421,26.7 419,28.1 416.9,32.1 C413.9,38 407.6,44.5 401.4,48.1 C398.4,49.8 396,51.4 396,51.6 C396,52.4 400,51 405,48.5 Z M448.8,49.8 C452,46.6 448.9,36.9 443.5,33.4 C441.1,31.8 440.7,31.8 437.5,33.6 C433.3,35.8 432.8,37.1 434.3,40.4 C435.7,43.4 436.5,43.6 437.5,41.3 C438.1,39.7 438.3,39.8 439.1,42 L440.1,44.4 L442.1,41.5 C443.6,39.3 444,39 443.5,40.6 C442.8,43.2 444.9,48.2 446.3,47.3 C446.8,47 446.9,47.6 446.5,48.9 C445.8,51.2 446.9,51.7 448.8,49.8 Z M152.3,47.3 C151.6,47.1 150.4,47.1 149.8,47.3 C149.1,47.6 149.6,47.8 151,47.8 C152.4,47.8 152.9,47.6 152.3,47.3 Z M222.2,43.5 C218.6,40.9 214.5,36.7 212.4,33.5 C208.5,27.7 207,26.7 207,29.9 C207,33.2 214.4,41 221.9,45.7 C228.3,49.7 228.6,48.1 222.2,43.5 Z M291.5,44.3 C290.8,42.2 289.9,38.4 289.5,35.8 C289.1,33.1 288.3,31 287.8,31 C286.3,31 287.8,39.8 290.1,44.2 C292.6,49 293.1,49 291.5,44.3 Z M325.3,44.8 C323.9,42 323.5,41.8 323.2,43.4 C323,44.5 323.6,45.9 324.6,46.7 C327.2,48.6 327.2,48.4 325.3,44.8 Z M333.3,42.2 C335.1,37.3 335.7,29.2 334.1,32 C333.6,32.8 332.9,35.8 332.5,38.5 C332.2,41.3 331.2,44.5 330.4,45.7 C329.3,47.5 329.3,47.8 330.3,47.4 C331,47.2 332.4,44.8 333.3,42.2 Z M402.4,44.8 C409.9,39.7 415,33.4 415,29.3 C415,27.9 414.5,28.1 412.7,30.4 C407.5,37.1 402.5,42.1 398.1,45.1 C394.1,47.8 393.9,48.2 396.4,47.6 C398.1,47.2 400.8,45.9 402.4,44.8 Z M472.3,47.3 C471.6,47.1 470.4,47.1 469.8,47.3 C469.1,47.6 469.6,47.8 471,47.8 C472.4,47.8 472.9,47.6 472.3,47.3 Z M230,45.2 C228.7,44.3 224.3,40.2 220.3,36.1 C212.8,28.4 210.2,27.3 213.9,33.3 C216.2,37.1 220.6,40.7 227.3,44.6 C232.1,47.3 233.6,47.7 230,45.2 Z M299,43.7 C299,41.9 298.8,41.8 298,43 C296.7,45 296.7,47.3 298,46.5 C298.6,46.2 299,44.9 299,43.7 Z M328.5,45.1 C328.8,44.6 328.6,43.9 328,43.5 C327.5,43.2 327,43.6 327,44.4 C327,46.2 327.6,46.5 328.5,45.1 Z M401.2,41 C403.3,39.5 405.8,37.2 406.8,35.9 C409.3,32.8 410.5,29 409.1,29 C408.5,29 408,29.3 408,29.8 C408,31 399.7,39.8 396,42.6 C393,44.8 392.9,45.1 395,44.5 C396.4,44.1 399.2,42.5 401.2,41 Z M226.8,37.8 C223.8,34.9 220.8,31.6 220.2,30.5 C218.9,28.1 217.6,29.1 218.5,31.9 C219.1,33.9 229.7,43 231.4,43 C231.9,43 229.9,40.6 226.8,37.8 Z M231.5,37.4 C229.5,34.8 227.2,31.3 226.3,29.6 C224.9,27.1 224.5,26.9 224.2,28.3 C223.8,30.2 227.3,35.3 231.8,39.5 C233.3,40.9 234.6,42 234.7,42 C234.9,42 233.4,39.9 231.5,37.4 Z M294,39 C294,37.4 293.6,36 293,36 C291.9,36 291.6,40.3 292.7,41.3 C293.8,42.5 294,42.1 294,39 Z M329.7,37.3 C329.4,36.3 329.2,37.1 329.2,39 C329.2,40.9 329.4,41.7 329.7,40.8 C329.9,39.8 329.9,38.2 329.7,37.3 Z M397.1,38.8 C401.7,35.7 405.8,30.5 404.3,29.8 C403.8,29.6 400.8,32.3 397.4,35.7 C394.1,39.2 391.6,42 391.9,42 C392.2,42 394.6,40.6 397.1,38.8 Z M252.1,39.5 C252.1,39 251.3,38.3 250.3,38.1 C245.1,37.1 242.8,30 245.4,23.4 L247,19.5 L245,21.9 C243.9,23.2 242.7,25.3 242.4,26.6 C240.8,32.8 245.2,41.4 249.6,40.8 C251,40.6 252.1,40.1 252.1,39.5 Z M376.6,39.6 C380.1,36 381.1,27.9 378.5,23 C376.3,18.8 375.8,19.3 377.6,23.7 C378.6,25.9 378.9,28.6 378.6,30.4 C377.8,34 374.3,38 371.8,38 C370,38 369.4,39.1 370.7,40.3 C371.8,41.5 375.1,41.1 376.6,39.6 Z M396.1,33.3 C397.3,31.5 398,29.5 397.8,28.8 C397.6,28.2 396.4,29.2 395.3,31.1 C394.1,33 392.1,36.1 390.9,38 L388.6,41.5 L391.4,39 C392.9,37.7 395,35.1 396.1,33.3 Z M253,36.4 C253,37.7 250.2,36.9 248.7,35.2 C247.5,33.9 247.1,31.8 247.2,28.4 L247.3,23.5 L247.7,27.7 C248,30.7 248.8,32.5 250.6,33.9 C251.9,34.9 253,36.1 253,36.4 Z M223.4,121.3 C218.9,117.5 217.7,111 220.4,104.6 C223.4,97.4 231.7,94.6 236.4,99.3 C241.1,104 240.6,115.2 235.6,119.9 C232.4,122.9 226.2,123.6 223.4,121.3 Z M374.4,34.8 C375.3,33.6 375.9,30.7 375.9,28.5 L375.8,24.5 L375,28.4 C374.6,30.6 373.3,33.2 372.1,34.1 C369.6,36.1 369.4,37 371.4,37 C372.2,37 373.6,36 374.4,34.8 Z" id="Shape"></path>
                    <path d="M299,510.4 C284,508.7 274.9,506.7 261.8,502.3 C255.6,500.2 253.9,499.2 253.1,497.1 C252.6,495.7 251.9,493.6 251.4,492.6 C250.7,490.9 251.1,491 254.1,493.2 C266.5,502.3 299.7,507.9 326,505.2 C342.5,503.5 362,497.9 369.1,492.9 L371.7,491 L370.6,494.5 C369.9,496.4 369.1,498.2 368.9,498.5 C366.8,500.6 344.7,507 332.9,508.9 C325.6,510.1 304.5,511.1 299,510.4 Z" id="Shape"></path>
                    <path d="M315.5,602.5 C317.7,597 318.3,593.7 318.4,587.3 L318.5,579.1 L321.7,578.5 C326.3,577.7 329,573.8 329,568.1 C329,561 327.1,559 320.4,559 L314.8,559 L315.5,555.8 C315.8,554 317.3,550 318.8,547 C323.7,537 331.7,534.4 339.4,540.4 C343.8,543.7 345.9,548.5 346.7,556.7 C347,560.5 347.7,564.3 348.2,565.3 C349.5,567.8 354.5,567.5 356.4,564.8 C358.8,561.5 358.4,559 354.5,553.3 C347.9,543.5 347.9,534.2 354.6,528.1 C357.6,525.3 358.8,524.9 361.6,525.3 C366.5,526.1 370.6,529.6 373.7,535.7 L376.5,541.1 L374.3,542.8 C373.1,543.7 371.6,545.8 371,547.4 C370.1,549.9 370.2,550.8 371.8,552.9 C374.4,556.4 376.5,556.6 379.3,553.6 L381.7,551 L384.9,555 C387.3,558 388.8,559 391,559 C392.7,559 394,558.6 394,558.1 C394,557.6 392.2,554.1 390.1,550.3 C386.1,543.3 375,518.1 375,516 C375,515.2 375.8,515 377.3,515.5 C382.3,517.2 388.8,517.2 391.3,515.5 C396.9,511.9 396.9,501.8 391.4,500.4 C384.5,498.7 380.4,504.3 385.3,508.6 C387.8,510.7 387.9,510.9 386,511.5 C383.1,512.4 377.5,509.3 375.5,505.6 C373.1,501.3 374.1,497.7 378.9,492.9 C383.3,488.5 394.9,484.5 415.5,480.5 C442.5,475.1 453.2,469.5 455.9,459.4 C458.2,450.6 450.6,437.6 441.7,435.2 C434.2,433.1 425,438.3 425,444.6 C425,448.1 427.6,452.7 430,453.5 C435.3,455.2 438.5,448.1 433.5,445.8 C432,445.1 431.1,444 431.2,443.1 C431.7,440.8 436.4,438.8 439.6,439.6 C443.6,440.6 449.5,447 450.7,451.6 C453.5,462.8 444.8,469.2 420.5,474 C395.9,478.8 385.4,481.7 379.2,485.3 C375.9,487.3 375.8,487.3 376.8,485.4 C377.4,484.4 388.1,473.4 400.5,461 C413,448.6 423.8,437.3 424.6,435.8 C426.3,432.6 426.4,424.7 424.9,421.7 C423,418 320.4,316.1 317.5,315 C313.7,313.6 307.3,313.8 304.2,315.4 C302.7,316.2 278.2,340.2 249.8,368.7 C192.9,425.7 194.5,423.8 197,433.3 C198,436.9 201.7,441 222.8,462.3 C236.4,475.9 247.2,487 247,487 C246.7,487 243.9,485.7 240.8,484.1 C235.4,481.3 228.9,479.7 200.6,473.6 C176.6,468.5 167.8,460.9 172.8,449.7 C176.4,441.5 185.5,437.4 190.2,441.7 C192.1,443.4 192.1,443.5 188.8,446.2 C186.1,448.4 185.7,449.2 186.6,450.6 C189.6,455.6 193.2,454.9 196.3,448.8 C197.9,445.5 198,444.8 196.6,441.7 C194.6,436.9 190.8,434.6 185,434.6 C171.6,434.6 161,453.3 168.3,464.1 C172.7,470.6 185.3,476.3 202.6,479.5 C228.5,484.3 238.4,487.6 244.1,493 C247.4,496.1 248,497.3 248,500.8 C248,507.8 241.6,513.3 235.8,511.1 L233.5,510.3 L235.8,509.6 C241.8,507.6 240,500 233.5,500 C229.4,500 227,502.9 227,507.8 C227,514.9 236,519.2 243.5,515.8 C244.9,515.2 246.3,514.9 246.6,515.3 C247.9,516.6 236.2,544 230.7,552.7 C227.3,558.1 227.3,559 231,559 C233.2,559 234.7,558 237.1,555 L240.3,551 L242.6,553.5 C245.3,556.4 246.7,556.6 249.2,554.3 C251.8,551.9 251.5,546.7 248.5,543.4 C245.5,540.2 245.6,540.8 247.9,536.2 C254.3,523.6 265.8,521.7 270.9,532.3 C274.3,539.4 273.2,546 267.2,553.8 C262.6,559.8 264.2,567 270.1,567 C273.8,567 275.3,564.2 275.1,557.1 C275,549.5 277.9,543.6 283.8,539.9 C286.3,538.3 289.6,537 291,537 C297.2,537 304.8,546 306.4,555.3 L307.1,559 L302.2,559 C296.6,559 294.7,560.2 293.2,564.7 C291.2,570.8 294.7,577.5 300.4,578.6 L303.6,579.2 L303.2,585.1 C302.8,590.1 303.3,592.7 306.5,601.6 C310.8,613.7 311,613.7 315.5,602.5 Z M293.5,497.5 C275.4,495 279,497.6 243,461.5 L210.7,429.1 L214.5,424.8 C216.7,422.4 239,399.9 264.1,374.7 C292.5,346.3 310.5,329 311.4,329.2 C312.3,329.3 335.2,351.7 362.4,378.9 C401.3,417.7 411.7,428.7 411,429.9 C410.6,430.8 395.9,445.5 378.5,462.5 C354.7,485.8 345.8,493.8 343.1,494.6 C337,496.5 317.5,499 309.8,498.9 C305.8,498.8 298.5,498.2 293.5,497.5 Z M288.1,458.9 C293.4,448.2 300.4,434 303.6,427.3 C306.9,420.5 309.9,415.2 310.5,415.3 C311.7,415.7 313,418.2 324.2,441.5 C341.2,477 342.3,479 343.5,479 C345.2,479 345.4,477.9 348.9,454 C357.3,396.8 357.1,398.1 361,396 C362,395.5 364,395 365.4,395 C366.8,395 368.2,394.6 368.5,394 C369.2,392.9 346.4,392.5 343.6,393.6 C342.6,394 342.3,395 342.6,396.9 C342.9,398.4 342,408.1 340.6,418.6 C339.1,429 337.7,439.3 337.4,441.5 C336.2,450.3 336.1,450.3 321.9,421.1 C313,402.9 307.6,393 306.8,393.2 C306.1,393.4 299.5,405.7 292.1,420.5 C281.7,441.2 278.5,446.9 277.9,445.4 C277,443.2 272,404.9 272,400.5 C272,396.8 273.6,395 276.6,395 C277.9,395 279.2,394.6 279.5,394 C279.9,393.4 275.7,393 267.5,393 C259.3,393 255.1,393.4 255.5,394 C255.8,394.6 257,395 258,395 C261,395 262.8,398.8 264.4,408.5 C266.2,419.9 268.6,434.8 270.4,447 C275.6,481.3 275.2,479.4 277.3,478.7 C277.9,478.5 282.8,469.6 288.1,458.9 Z" id="Shape"></path>
                    <path d="M263.1,489.6 C258.9,488.4 204.3,434 203.3,430.2 C203,428.7 203.4,426.5 204.4,424.6 C206.3,421 304.3,322.9 307.8,321.1 C309.1,320.4 311.4,320.1 312.9,320.5 C314.8,320.9 331.5,337 367.3,372.8 C418,423.5 419,424.7 419,428.5 C419,432.3 418.1,433.3 391.8,459.8 C365.7,486 360.5,490.5 357.5,489.8 C356.8,489.6 369.2,476.2 385.1,460 C405.1,439.5 414,429.8 414,428.3 C414,425.3 314.4,324.9 311.5,325 C308.8,325 208,425.8 208,428.5 C208,429.8 218.5,441 237.7,460.2 C254,476.5 267.2,490.1 267,490.3 C266.7,490.5 265,490.2 263.1,489.6 Z" id="Shape"></path>
                    <path d="M139.1,318.4 C139.1,317.3 139.4,317 139.7,317.8 C140,318.5 139.9,319.4 139.6,319.7 C139.3,320.1 139,319.5 139.1,318.4 Z" id="Shape"></path>
                    <path d="M181.5,34.9 C180.4,33.2 181.6,32.8 183,34.5 C183.8,35.4 183.8,36 183.2,36 C182.6,36 181.8,35.5 181.5,34.9 Z" id="Shape"></path>
                    <path d="M446.1,40.4 C446.1,39.3 446.4,39 446.7,39.8 C447,40.5 446.9,41.4 446.6,41.7 C446.3,42.1 446,41.5 446.1,40.4 Z" id="Shape"></path>
                    <path d="M438.8,34.8 C439.3,34.3 440.4,34 441.1,34.2 C441.9,34.5 441.4,34.9 440.1,35.3 C438.4,35.7 438,35.6 438.8,34.8 Z" id="Shape"></path>
                </g>
            </g>
        </g>
    </g>
</svg>